Coordinates
version=1
nRows=21
nColumns=12
inDegrees=yes

Units are S.I. units (second, meters, Newtons, ...)
Angles are in degrees

endheader
time	SC_y	SC_z	SC_x	AC_y	AC_z	AC_x	GH_y	GH_z	GH_yy	EL_x	PS_y
       0.0              -50.94          23.06          64.03          55.19         -17.79          3.028         -115.5          66.66         -126.0          124.9          44.84
   0.04249              -50.94          23.07          64.03          55.19         -17.79          3.027         -115.5          66.66         -126.0          124.9          44.85
   0.08498              -50.93          23.07          64.03          55.19         -17.78          3.025         -115.4          66.65         -126.0          124.9          44.86
    0.1275              -50.93          23.07          64.04          55.18         -17.78          3.024         -115.4          66.65         -125.9          124.9          44.87
      0.17              -50.93          23.07          64.04          55.18         -17.77          3.023         -115.3          66.65         -125.9          124.9          44.88
    0.2124              -50.93          23.07          64.05          55.18         -17.77          3.021         -115.3          66.65         -125.9          124.8          44.89
    0.2549              -50.93          23.07          64.05          55.17         -17.77           3.02         -115.3          66.64         -125.9          124.8           44.9
    0.2974              -50.92          23.07          64.05          55.17         -17.76          3.018         -115.2          66.64         -125.8          124.8          44.91
    0.3399              -50.92          23.07          64.06          55.17         -17.76          3.016         -115.2          66.63         -125.8          124.8          44.92
    0.3824              -50.92          23.08          64.06          55.16         -17.75          3.014         -115.1          66.63         -125.7          124.8          44.94
    0.4249              -50.91          23.08          64.07          55.16         -17.74          3.012         -115.0          66.63         -125.7          124.8          44.95
    0.4674              -50.91          23.08          64.08          55.15         -17.74          3.009         -115.0          66.62         -125.7          124.8          44.97
    0.5099              -50.91          23.08          64.08          55.15         -17.73          3.007         -114.9          66.62         -125.6          124.8          44.98
    0.5524               -50.9          23.08          64.09          55.14         -17.72          3.004         -114.8          66.61         -125.6          124.8           45.0
    0.5948               -50.9          23.09           64.1          55.14         -17.72          3.001         -114.7          66.61         -125.5          124.8          45.02
    0.6373              -50.89          23.09           64.1          55.13         -17.71          2.998         -114.6           66.6         -125.4          124.8          45.04
    0.6798              -50.89          23.09          64.11          55.12          -17.7          2.995         -114.5          66.59         -125.4          124.8          45.06
    0.7223              -50.88           23.1          64.12          55.11         -17.69          2.991         -114.4          66.58         -125.3          124.8          45.09
    0.7648              -50.88           23.1          64.13          55.11         -17.68          2.987         -114.3          66.58         -125.2          124.8          45.12
    0.8073              -50.87           23.1          64.14           55.1         -17.66          2.982         -114.2          66.57         -125.1          124.8          45.14
    0.8498              -50.87          23.11          64.16          55.09         -17.65          2.977         -114.0          66.56         -125.0          124.7          45.18
